<?xml version="1.0" encoding="utf-8"?>
<!-- Generator: Adobe Illustrator 24.1.0, SVG Export Plug-In . SVG Version: 6.00 Build 0)  -->
<svg version="1.1" id="Logo" xmlns="http://www.w3.org/2000/svg" xmlns:xlink="http://www.w3.org/1999/xlink" x="0px" y="0px"
	 viewBox="0 0 390.4 120.3" style="enable-background:new 0 0 390.4 120.3;" xml:space="preserve">
<style type="text/css">
	.st0{enable-background:new    ;}
	.st1{fill:#FFFFFF;}
</style>
<g class="st0">
	<path class="st1" d="M9.3,94.3V53.6H2v-12h7.4V24.1h15.3v17.5H32v12h-7.4v40.7H9.3z"/>
	<path class="st1" d="M83,71.8H43.4c0.6,3.8,2,6.6,4.1,8.5c2.1,1.9,5.1,2.8,8.8,2.8c2.8,0,5.2-0.5,7.2-1.6c2-1.1,3.7-2.7,5.1-4.9
		L81,82.8c-2.9,4.6-6.3,8-10.4,10.3c-4.1,2.2-8.9,3.4-14.6,3.4c-8.5,0-15.3-2.5-20.2-7.6c-5-5.1-7.5-11.9-7.5-20.5
		c0-8.3,2.6-15.1,7.8-20.4c5.2-5.3,11.9-8,20-8c8.4,0,15,2.5,19.9,7.5c4.9,5,7.3,11.8,7.3,20.4c0,0.5,0,1-0.1,1.5
		C83.2,69.9,83.1,70.7,83,71.8z M67.9,62.5c-0.4-3.3-1.6-5.8-3.6-7.5c-2-1.7-4.7-2.6-8.1-2.6s-6.2,0.9-8.2,2.6
		c-2.1,1.7-3.4,4.2-3.9,7.5H67.9z"/>
	<path class="st1" d="M84.7,94.3V41.6h15v8.3c2.8-3.4,5.7-6,8.9-7.6c3.2-1.6,6.7-2.4,10.6-2.4c4.1,0,7.5,0.7,10.3,2.1
		c2.8,1.4,5,3.5,6.6,6.3c0.8,1.5,1.4,3.1,1.7,5c0.3,1.8,0.5,4.7,0.5,8.7v1.7v30.8h-15.3v-26c0-6.5-0.8-10.8-2.3-12.8
		c-1.5-2.1-4.1-3.1-7.7-3.1c-2.1,0-4.1,0.4-5.8,1.3c-1.8,0.9-3.2,2.1-4.4,3.7c-0.9,1.3-1.6,2.7-2,4.3c-0.4,1.6-0.6,4.1-0.6,7.4v2.1
		v23.2H84.7z"/>
	<path class="st1" d="M195.6,94.3h-14.8l0.2-7.6c-2.1,3.3-4.6,5.8-7.5,7.3c-2.9,1.6-6.5,2.3-10.7,2.3c-7,0-12.6-2.6-16.9-7.8
		c-4.3-5.2-6.4-12-6.4-20.6c0-8.9,2.1-15.9,6.3-20.8c4.2-5,10.1-7.5,17.5-7.5c3.8,0,7.2,0.9,10.1,2.6c2.9,1.8,5.6,4.5,8.2,8.3
		c-0.2-1.3-0.3-2.7-0.4-4.3c-0.1-1.6-0.1-3.3-0.1-5.3v-30h14.5V94.3z M181.7,67.9c0-4.7-1.2-8.5-3.6-11.2c-2.4-2.8-5.6-4.1-9.6-4.1
		c-4.2,0-7.4,1.4-9.8,4.1c-2.4,2.7-3.6,6.4-3.6,11.2c0,4.8,1.2,8.5,3.5,11.2c2.3,2.7,5.6,4,9.7,4c4.2,0,7.5-1.3,9.8-4
		C180.5,76.4,181.7,72.7,181.7,67.9z"/>
	<path class="st1" d="M252.2,71.8h-39.6c0.6,3.8,2,6.6,4.1,8.5c2.1,1.9,5.1,2.8,8.8,2.8c2.8,0,5.2-0.5,7.2-1.6
		c2-1.1,3.7-2.7,5.1-4.9l12.4,6.2c-2.9,4.6-6.3,8-10.4,10.3c-4.1,2.2-8.9,3.4-14.6,3.4c-8.5,0-15.3-2.5-20.2-7.6
		c-5-5.1-7.5-11.9-7.5-20.5c0-8.3,2.6-15.1,7.8-20.4c5.2-5.3,11.9-8,20-8c8.4,0,15,2.5,19.9,7.5c4.9,5,7.3,11.8,7.3,20.4
		c0,0.5,0,1-0.1,1.5C252.3,69.9,252.3,70.7,252.2,71.8z M237,62.5c-0.4-3.3-1.6-5.8-3.6-7.5c-2-1.7-4.7-2.6-8.1-2.6
		s-6.2,0.9-8.2,2.6c-2.1,1.7-3.4,4.2-3.9,7.5H237z"/>
	<path class="st1" d="M268.6,55.2c1.5-5.1,3.8-9,6.6-11.5c2.9-2.5,6.5-3.8,10.7-3.8c1,0,2.6,0.2,4.8,0.5c0.4,0.1,0.8,0.1,1,0.2
		L289.4,57c-1.1-0.5-2.3-0.8-3.5-1c-1.2-0.2-2.4-0.3-3.7-0.3c-4.7,0-8,1.2-10,3.6c-2,2.4-3.1,6.4-3.1,12v23.2h-15.3V41.6H269
		L268.6,55.2z"/>
</g>
<path class="st1" d="M390.4,72.1v1.2c0,0.2-0.1,0.3-0.1,0.5c-0.1,3.4-0.7,6.8-1.7,10.1c-0.7,2.4-1.9,4.6-3.4,6.6
	c-1.3,1.7-3.1,3-5.1,3.5c-0.5,0.1-0.9,0.2-1.4,0.3H377l-0.4-0.1c-2-0.2-3.8-1.3-5-2.9c-0.9-1.3-1.5-2.7-2-4.1c-1.2-3.5-2.2-7-3-10.6
	l-0.2-1l-0.2,0.4c-1.8,3.8-4.2,7.2-7.1,10.2c-2.7,2.6-5.9,4.7-9.3,6c-2.9,1.1-6,1.8-9.2,2l-1.5,0.1h-3.5c-0.1,0-0.2-0.1-0.4-0.1
	c-2-0.1-3.9-0.4-5.8-0.9c-4.1-1.1-7.9-3.2-10.9-6.1c-3.5-3.5-6.2-7.7-7.9-12.3c-1.9-5.3-3-10.9-3.2-16.5c-0.3-4.3-0.2-8.6,0.2-12.9
	c0.3-3.7,1-7.3,2.1-10.9c1.9-6.7,5.7-12.6,11-17.1c5.1-4.6,11.9-6.8,18.7-6.3c4.8,0.2,9.3,2.4,12.5,5.9c2.4,2.6,4.3,5.6,5.8,8.8
	c1.8,3.7,3.2,7.5,4.4,11.4c0,0.1,0.1,0.2,0.1,0.4c0-0.2,0.1-0.3,0.1-0.4l1.2-5.7c1.3-5.9,2.6-11.9,3.8-17.8c0.1-0.3,0.2-0.4,0.5-0.4
	h14.2c0,0.1,0,0.2,0,0.2c-0.5,2.4-1.1,4.8-1.6,7.3l-3.5,15.6c-1.4,6-2.7,12.1-4,18.1c-0.9,4.1-1.8,8.2-3.1,12.2c0,0.1,0,0.2,0,0.4
	c0.5,2.3,1.1,4.5,1.9,6.7c0.7,2.1,1.6,4,2.9,5.8c0.7,1.1,1.7,1.9,2.9,2.5c1.1,0.5,2.4,0.7,3.7,0.5c1.9-0.2,3.5-1.2,4.6-2.7
	c1.1-1.6,1.7-3.5,1.8-5.4c0.1-0.8,0.1-1.6,0.2-2.4h0.4L390.4,72.1z M323,54.5c0,4.6,0.2,9.3,0.8,13.9c0.4,3.6,1.2,7.2,2.4,10.6
	c0.8,2.3,2,4.5,3.5,6.4c3.4,4,9.1,5,13.6,2.4c1.9-1.2,3.6-2.7,4.9-4.6c2.2-3.1,3.9-6.4,5.1-10c1.7-4.7,3-9.5,4-14.4
	c0.8-3.8,1.5-7.6,2.3-11.3c0.1-0.3,0.1-0.7,0-1c-1-2.9-1.9-5.8-2.9-8.6c-1.5-4.3-3.5-8.4-5.9-12.3c-1.3-2.1-2.9-3.9-4.8-5.4
	c-4.9-3.9-12-3.2-16,1.5c-1.7,2.1-3,4.5-3.8,7.1c-1.4,4.3-2.3,8.8-2.6,13.3C323.1,46.1,323,50.1,323,54.5L323,54.5z"/>
</svg>
